{"title":"The Horrors - Luminous (2014) [FLAC]","uid":10086810,"size":423218336,"categoryP":"audio","categoryS":"flac","magnet":"?xt=urn:btih:a00e760d4f44995c585bb0452f871215078fcb98&amp;dn=The+Horrors+-+Luminous+%282014%29+%5BFLAC%5D&amp;tr=udp%3A%2F%2Ftracker.openbittorrent.com%3A80&amp;tr=udp%3A%2F%2Fopen.demonii.com%3A1337&amp;tr=udp%3A%2F%2Ftracker.coppersurfer.tk%3A6969&amp;tr=udp%3A%2F%2Fexodus.desync.com%3A6969","seeders":3,"leechers":0,"uploader":"kabbs","files":-1,"time":1399117060,"description":"The Horrors - Luminous (2014)\n\n1.\t&quot;Chasing Shadows&quot;  \t6:49\n2.\t&quot;First Day of Spring&quot;  \t5:11\n3.\t&quot;So Now You Know&quot;  \t5:02\n4.\t&quot;In and Out of Sight&quot;  \t5:03\n5.\t&quot;Jealous Sun&quot;  \t4:10\n6.\t&quot;Falling Star&quot;  \t3:43\n7.\t&quot;I See You&quot;  \t7:32\n8.\t&quot;Change Your Mind&quot;  \t5:07\n9.\t&quot;Mine and Yours&quot;  \t3:31\n10.\t&quot;Sleepwalk&quot;  \t5:26\n\n--------------------------------------------\n\nExact Audio Copy V1.0 beta 3 from 29. August 2011\n\nEAC extraction logfile from 3. May 2014, 17:23\n\nThe Horrors / Luminous\n\nUsed drive  : HL-DT-STDVDRAM GH22LS50   Adapter: 0  ID: 0\n\nRead mode               : Secure\nUtilize accurate stream : Yes\nDefeat audio cache      : No\nMake use of C2 pointers : No\n\nRead offset correction                      : 667\nOverread into Lead-In and Lead-Out          : No\nFill up missing offset samples with silence : Yes\nDelete leading and trailing silent blocks   : No\nNull samples used in CRC calculations       : Yes\nUsed interface                              : Native Win32 interface for Win NT &amp; 2000\n\nUsed output format : Internal WAV Routines\nSample format      : 44.100 Hz; 16 Bit; Stereo\n\n\nTOC of the extracted CD\n\n     Track |   Start  |  Length  | Start sector | End sector \n    ---------------------------------------------------------\n        1  |  0:00.00 |  6:49.46 |         0    |    30720   \n        2  |  6:49.46 |  5:11.10 |     30721    |    54055   \n        3  | 12:00.56 |  5:02.59 |     54056    |    76764   \n        4  | 17:03.40 |  5:03.68 |     76765    |    99557   \n        5  | 22:07.33 |  4:10.21 |     99558    |   118328   \n        6  | 26:17.54 |  3:43.51 |    118329    |   135104   \n        7  | 30:01.30 |  7:32.48 |    135105    |   169052   \n        8  | 37:34.03 |  5:07.41 |    169053    |   192118   \n        9  | 42:41.44 |  3:31.38 |    192119    |   207981   \n       10  | 46:13.07 |  5:26.24 |    207982    |   232455   \n\n\nRange status and errors\n\nSelected range\n\n     Filename E:WAVCUEThe Horrors - Luminous.wav\n\n     Peak level 100.0 %\n     Extraction speed 2.7 X\n     Range quality 100.0 %\n     Copy CRC 68A1231C\n     Copy OK\n\nNo errors occurred\n\n \nAccurateRip summary\n \nTrack  1  not present in database\nTrack  2  not present in database\nTrack  3  not present in database\nTrack  4  not present in database\nTrack  5  not present in database\nTrack  6  not present in database\nTrack  7  not present in database\nTrack  8  not present in database\nTrack  9  not present in database\nTrack 10  not present in database\n \nNone of the tracks are present in the AccurateRip database\n\nEnd of status report\n\n==== Log checksum 54450C4B580EB465A741197F8AB6FB7D319B676684E5A84C548DA8F887756AA2 ====\n","torrent":{"xt":"urn:btih:a00e760d4f44995c585bb0452f871215078fcb98","amp;dn":"The+Horrors+-+Luminous+%282014%29+%5BFLAC%5D","amp;tr":["udp%3A%2F%2Ftracker.openbittorrent.com%3A80","udp%3A%2F%2Fopen.demonii.com%3A1337","udp%3A%2F%2Ftracker.coppersurfer.tk%3A6969","udp%3A%2F%2Fexodus.desync.com%3A6969"],"infoHash":"a00e760d4f44995c585bb0452f871215078fcb98","infoHashBuffer":{"type":"Buffer","data":[160,14,118,13,79,68,153,92,88,91,176,69,47,135,18,21,7,143,203,152]},"announce":[],"urlList":[]}}